<svg width="203" height="173" viewBox="0 0 203 173" fill="none" xmlns="http://www.w3.org/2000/svg">
<path fill-rule="evenodd" clip-rule="evenodd" d="M122.098 26.8787C126.756 25.1226 131.743 24.2826 136.756 24.4101C141.769 24.5376 146.701 25.63 151.252 27.6203C155.802 29.6101 159.875 32.4554 163.223 35.9822C172.884 46.133 174.443 60.2515 169.524 72.1865C163.557 86.6656 152.142 99.9204 140.133 112.192C135.886 116.533 131.593 120.726 127.399 124.822C119.517 132.52 111.985 139.877 105.763 147.229C105.078 148.038 104.062 148.535 102.966 148.596C101.871 148.658 100.798 148.278 100.017 147.551C98.5663 146.203 97.0623 144.811 95.5165 143.381C85.8907 134.474 74.6227 124.048 64.2793 112.962C52.3025 100.125 41.2893 86.1234 35.4287 72.2117C33.5738 67.8086 32.6868 63.0947 32.8214 58.357C32.9561 53.6193 34.1097 48.9569 36.2121 44.6542C38.3143 40.3524 41.321 36.5002 45.0496 33.3324C60.0753 20.5343 83.2252 22.7214 97.1266 35.8729L102.736 41.1794L109.666 34.6228C113.211 31.27 117.44 28.6348 122.098 26.8787ZM136.547 31.7136C132.59 31.613 128.652 32.2761 124.974 33.6629C121.295 35.0497 117.953 37.1314 115.152 39.7814L105.479 48.9327C104.752 49.6203 103.765 50.0064 102.736 50.0064C101.706 50.0064 100.719 49.6203 99.9928 48.9327L91.6409 41.0311C80.2513 30.2565 61.7942 28.9132 50.24 38.756L50.2357 38.7596C47.2883 41.2631 44.9103 44.3094 43.2474 47.7126C41.5845 51.1155 40.6717 54.804 40.5651 58.5528C40.4586 62.3012 41.1605 66.0311 42.6278 69.5139C47.9894 82.2413 58.2924 95.486 70.0945 108.135C80.2343 119.002 91.2772 129.222 100.913 138.139C101.423 138.61 101.928 139.078 102.43 139.543C108.33 132.93 115.238 126.18 122.195 119.381C126.326 115.343 130.475 111.289 134.441 107.237C146.361 95.0556 156.9 82.6515 162.304 69.5395C166.317 59.8025 164.903 48.6843 157.458 40.862L157.454 40.858C154.807 38.0692 151.588 35.8207 147.994 34.2486C144.399 32.6767 140.504 31.8143 136.547 31.7136Z" fill="#2260FF"/>
<path fill-rule="evenodd" clip-rule="evenodd" d="M113.803 52.3896L80.2217 89.3889C79.1467 90.5733 80.1376 92.2935 81.8944 92.2935H101.038L94.5789 120.227L128.16 83.2273C129.235 82.0429 128.244 80.3227 126.487 80.3227H107.343L113.803 52.3896Z" fill="#2260FF"/>
</svg>
