<?xml version="1.0" encoding="UTF-8"?>
<!DOCTYPE svg PUBLIC "-//W3C//DTD SVG 1.1//EN" "http://www.w3.org/Graphics/SVG/1.1/DTD/svg11.dtd">
<svg xmlns="http://www.w3.org/2000/svg" version="1.1" width="512px" height="512px" style="shape-rendering:geometricPrecision; text-rendering:geometricPrecision; image-rendering:optimizeQuality; fill-rule:evenodd; clip-rule:evenodd" xmlns:xlink="http://www.w3.org/1999/xlink">
<g><path style="opacity:1" fill="#225ffd" d="M 269.5,32.5 C 272.589,33.7846 275.922,34.4512 279.5,34.5C 283.216,36.4053 287.216,37.7387 291.5,38.5C 295.849,41.3411 300.516,43.6745 305.5,45.5C 307.147,47.3264 309.147,48.6597 311.5,49.5C 319.167,56.5 326.5,63.8333 333.5,71.5C 333.427,73.0269 334.094,74.0269 335.5,74.5C 335.427,76.0269 336.094,77.0269 337.5,77.5C 339.326,82.4844 341.659,87.1511 344.5,91.5C 345.261,95.7843 346.595,99.7843 348.5,103.5C 349.606,111.627 350.606,119.627 351.5,127.5C 351.5,164.833 351.5,202.167 351.5,239.5C 350.691,251.665 348.358,263.665 344.5,275.5C 341.249,281.001 338.249,286.667 335.5,292.5C 328.201,301.467 320.201,309.8 311.5,317.5C 309.973,317.427 308.973,318.094 308.5,319.5C 306.973,319.427 305.973,320.094 305.5,321.5C 300.516,323.326 295.849,325.659 291.5,328.5C 287.216,329.261 283.216,330.595 279.5,332.5C 275.922,332.549 272.589,333.215 269.5,334.5C 260.167,335.833 250.833,335.833 241.5,334.5C 234.27,332.523 226.936,330.523 219.5,328.5C 213.999,325.249 208.333,322.249 202.5,319.5C 193.533,312.201 185.2,304.201 177.5,295.5C 177.573,293.973 176.906,292.973 175.5,292.5C 175.573,290.973 174.906,289.973 173.5,289.5C 171.674,284.516 169.341,279.849 166.5,275.5C 165.739,271.216 164.405,267.216 162.5,263.5C 162.451,259.922 161.785,256.589 160.5,253.5C 159.167,206.833 159.167,160.167 160.5,113.5C 161.785,110.411 162.451,107.078 162.5,103.5C 164.405,99.7843 165.739,95.7843 166.5,91.5C 169.341,87.1511 171.674,82.4844 173.5,77.5C 174.906,77.0269 175.573,76.0269 175.5,74.5C 176.906,74.0269 177.573,73.0269 177.5,71.5C 184.5,63.8333 191.833,56.5 199.5,49.5C 201.027,49.573 202.027,48.9063 202.5,47.5C 204.027,47.573 205.027,46.9063 205.5,45.5C 210.484,43.6745 215.151,41.3411 219.5,38.5C 223.784,37.7387 227.784,36.4053 231.5,34.5C 235.078,34.4512 238.411,33.7846 241.5,32.5C 250.833,31.1667 260.167,31.1667 269.5,32.5 Z M 254.5,63.5 C 255.167,63.5 255.833,63.5 256.5,63.5C 261.32,64.4865 266.32,65.1532 271.5,65.5C 274.215,67.0719 277.215,68.0719 280.5,68.5C 282.181,70.0075 284.181,71.0075 286.5,71.5C 288.975,74.2411 291.975,76.2411 295.5,77.5C 301.557,83.3175 306.89,89.6509 311.5,96.5C 311.66,98.153 312.326,99.4863 313.5,100.5C 314.459,104.383 315.792,108.05 317.5,111.5C 317.875,117.009 318.542,122.342 319.5,127.5C 319.5,164.833 319.5,202.167 319.5,239.5C 318.542,244.658 317.875,249.991 317.5,255.5C 315.792,258.95 314.459,262.617 313.5,266.5C 312.326,267.514 311.66,268.847 311.5,270.5C 304.833,280.5 296.5,288.833 286.5,295.5C 284.847,295.66 283.514,296.326 282.5,297.5C 278.617,298.459 274.95,299.792 271.5,301.5C 266.121,301.904 260.787,302.571 255.5,303.5C 250.213,302.571 244.879,301.904 239.5,301.5C 236.05,299.792 232.383,298.459 228.5,297.5C 227.486,296.326 226.153,295.66 224.5,295.5C 214.5,288.833 206.167,280.5 199.5,270.5C 199.34,268.847 198.674,267.514 197.5,266.5C 196.541,262.617 195.208,258.95 193.5,255.5C 193.125,249.991 192.458,244.658 191.5,239.5C 191.5,202.167 191.5,164.833 191.5,127.5C 192.458,122.342 193.125,117.009 193.5,111.5C 195.208,108.05 196.541,104.383 197.5,100.5C 198.674,99.4863 199.34,98.153 199.5,96.5C 202.241,94.0246 204.241,91.0246 205.5,87.5C 209.167,84.5 212.5,81.1667 215.5,77.5C 219.025,76.2411 222.025,74.2411 224.5,71.5C 226.153,71.3404 227.486,70.6737 228.5,69.5C 232.383,68.5412 236.05,67.2078 239.5,65.5C 244.68,65.1532 249.68,64.4865 254.5,63.5 Z"/></g>
<g><path style="opacity:0.502" fill="#000000" d="M 241.5,32.5 C 238.411,33.7846 235.078,34.4512 231.5,34.5C 234.544,32.9886 237.878,32.322 241.5,32.5 Z"/></g>
<g><path style="opacity:0.524" fill="#000000" d="M 269.5,32.5 C 273.122,32.322 276.456,32.9886 279.5,34.5C 275.922,34.4512 272.589,33.7846 269.5,32.5 Z"/></g>
<g><path style="opacity:0.496" fill="#000000" d="M 231.5,34.5 C 227.784,36.4053 223.784,37.7387 219.5,38.5C 223.085,36.1939 227.085,34.8606 231.5,34.5 Z"/></g>
<g><path style="opacity:0.513" fill="#000000" d="M 279.5,34.5 C 283.915,34.8606 287.915,36.1939 291.5,38.5C 287.216,37.7387 283.216,36.4053 279.5,34.5 Z"/></g>
<g><path style="opacity:0.5" fill="#000000" d="M 219.5,38.5 C 215.151,41.3411 210.484,43.6745 205.5,45.5C 209.581,42.1263 214.247,39.793 219.5,38.5 Z"/></g>
<g><path style="opacity:0.509" fill="#000000" d="M 291.5,38.5 C 296.753,39.793 301.419,42.1263 305.5,45.5C 300.516,43.6745 295.849,41.3411 291.5,38.5 Z"/></g>
<g><path style="opacity:0.494" fill="#000000" d="M 205.5,45.5 C 205.027,46.9063 204.027,47.573 202.5,47.5C 202.973,46.0937 203.973,45.427 205.5,45.5 Z"/></g>
<g><path style="opacity:0.465" fill="#000000" d="M 305.5,45.5 C 308.198,45.8449 310.198,47.1782 311.5,49.5C 309.147,48.6597 307.147,47.3264 305.5,45.5 Z"/></g>
<g><path style="opacity:0.518" fill="#000000" d="M 202.5,47.5 C 202.027,48.9063 201.027,49.573 199.5,49.5C 199.973,48.0937 200.973,47.427 202.5,47.5 Z"/></g>
<g><path style="opacity:0.52" fill="#000000" d="M 199.5,49.5 C 191.833,56.5 184.5,63.8333 177.5,71.5C 183.167,62.5 190.5,55.1667 199.5,49.5 Z"/></g>
<g><path style="opacity:0.522" fill="#000000" d="M 311.5,49.5 C 320.5,55.1667 327.833,62.5 333.5,71.5C 326.5,63.8333 319.167,56.5 311.5,49.5 Z"/></g>
<g><path style="opacity:0.425" fill="#000000" d="M 254.5,63.5 C 249.68,64.4865 244.68,65.1532 239.5,65.5C 244.217,63.7623 249.217,63.0956 254.5,63.5 Z"/></g>
<g><path style="opacity:0.427" fill="#000000" d="M 256.5,63.5 C 261.783,63.0956 266.783,63.7623 271.5,65.5C 266.32,65.1532 261.32,64.4865 256.5,63.5 Z"/></g>
<g><path style="opacity:0.49" fill="#000000" d="M 239.5,65.5 C 236.05,67.2078 232.383,68.5412 228.5,69.5C 231.66,67 235.327,65.6667 239.5,65.5 Z"/></g>
<g><path style="opacity:0.523" fill="#000000" d="M 271.5,65.5 C 274.916,65.5275 277.916,66.5275 280.5,68.5C 277.215,68.0719 274.215,67.0719 271.5,65.5 Z"/></g>
<g><path style="opacity:0.593" fill="#000000" d="M 280.5,68.5 C 283.089,68.461 285.089,69.461 286.5,71.5C 284.181,71.0075 282.181,70.0075 280.5,68.5 Z"/></g>
<g><path style="opacity:0.556" fill="#000000" d="M 228.5,69.5 C 227.486,70.6737 226.153,71.3404 224.5,71.5C 225.287,69.8958 226.62,69.2291 228.5,69.5 Z"/></g>
<g><path style="opacity:0.518" fill="#000000" d="M 177.5,71.5 C 177.573,73.0269 176.906,74.0269 175.5,74.5C 175.427,72.9731 176.094,71.9731 177.5,71.5 Z"/></g>
<g><path style="opacity:0.468" fill="#000000" d="M 224.5,71.5 C 222.025,74.2411 219.025,76.2411 215.5,77.5C 217.951,74.7232 220.951,72.7232 224.5,71.5 Z"/></g>
<g><path style="opacity:0.461" fill="#000000" d="M 286.5,71.5 C 290.049,72.7232 293.049,74.7232 295.5,77.5C 291.975,76.2411 288.975,74.2411 286.5,71.5 Z"/></g>
<g><path style="opacity:0.508" fill="#000000" d="M 333.5,71.5 C 334.906,71.9731 335.573,72.9731 335.5,74.5C 334.094,74.0269 333.427,73.0269 333.5,71.5 Z"/></g>
<g><path style="opacity:0.51" fill="#000000" d="M 175.5,74.5 C 175.573,76.0269 174.906,77.0269 173.5,77.5C 173.427,75.9731 174.094,74.9731 175.5,74.5 Z"/></g>
<g><path style="opacity:0.495" fill="#000000" d="M 335.5,74.5 C 336.906,74.9731 337.573,75.9731 337.5,77.5C 336.094,77.0269 335.427,76.0269 335.5,74.5 Z"/></g>
<g><path style="opacity:0.507" fill="#000000" d="M 173.5,77.5 C 171.674,82.4844 169.341,87.1511 166.5,91.5C 167.793,86.2472 170.126,81.5806 173.5,77.5 Z"/></g>
<g><path style="opacity:0.595" fill="#000000" d="M 215.5,77.5 C 212.5,81.1667 209.167,84.5 205.5,87.5C 207.833,83.1667 211.167,79.8333 215.5,77.5 Z"/></g>
<g><path style="opacity:0.537" fill="#000000" d="M 295.5,77.5 C 302.942,82.0455 308.275,88.3788 311.5,96.5C 306.89,89.6509 301.557,83.3175 295.5,77.5 Z"/></g>
<g><path style="opacity:0.501" fill="#000000" d="M 337.5,77.5 C 340.874,81.5806 343.207,86.2472 344.5,91.5C 341.659,87.1511 339.326,82.4844 337.5,77.5 Z"/></g>
<g><path style="opacity:0.463" fill="#000000" d="M 205.5,87.5 C 204.241,91.0246 202.241,94.0246 199.5,96.5C 200.723,92.9505 202.723,89.9505 205.5,87.5 Z"/></g>
<g><path style="opacity:0.511" fill="#000000" d="M 166.5,91.5 C 165.739,95.7843 164.405,99.7843 162.5,103.5C 162.861,99.0845 164.194,95.0845 166.5,91.5 Z"/></g>
<g><path style="opacity:0.496" fill="#000000" d="M 344.5,91.5 C 346.806,95.0845 348.139,99.0845 348.5,103.5C 346.595,99.7843 345.261,95.7843 344.5,91.5 Z"/></g>
<g><path style="opacity:0.558" fill="#000000" d="M 199.5,96.5 C 199.34,98.153 198.674,99.4863 197.5,100.5C 197.229,98.6203 197.896,97.287 199.5,96.5 Z"/></g>
<g><path style="opacity:0.485" fill="#000000" d="M 197.5,100.5 C 196.541,104.383 195.208,108.05 193.5,111.5C 193.667,107.327 195,103.66 197.5,100.5 Z"/></g>
<g><path style="opacity:0.501" fill="#000000" d="M 313.5,100.5 C 316,103.66 317.333,107.327 317.5,111.5C 315.792,108.05 314.459,104.383 313.5,100.5 Z"/></g>
<g><path style="opacity:0.514" fill="#000000" d="M 162.5,103.5 C 162.451,107.078 161.785,110.411 160.5,113.5C 160.322,109.878 160.989,106.544 162.5,103.5 Z"/></g>
<g><path style="opacity:0.595" fill="#000000" d="M 348.5,103.5 C 351.008,111.171 352.008,119.171 351.5,127.5C 350.606,119.627 349.606,111.627 348.5,103.5 Z"/></g>
<g><path style="opacity:0.398" fill="#000000" d="M 193.5,111.5 C 193.125,117.009 192.458,122.342 191.5,127.5C 191.073,121.886 191.74,116.553 193.5,111.5 Z"/></g>
<g><path style="opacity:0.408" fill="#000000" d="M 317.5,111.5 C 319.26,116.553 319.927,121.886 319.5,127.5C 318.542,122.342 317.875,117.009 317.5,111.5 Z"/></g>
<g><path style="opacity:0.587" fill="#000000" d="M 127.5,239.5 C 124.069,225.784 115.736,221.618 102.5,227C 99.8941,228.938 98.0608,231.438 97,234.5C 96.3992,244.847 96.5659,255.181 97.5,265.5C 96.6862,263.369 96.1862,261.036 96,258.5C 95.3333,250.167 95.3333,241.833 96,233.5C 98.8068,226.513 103.973,223.18 111.5,223.5C 121.839,223.839 127.172,229.172 127.5,239.5 Z"/></g>
<g><path style="opacity:0.585" fill="#000000" d="M 413.5,265.5 C 414.434,255.181 414.601,244.847 414,234.5C 410.091,226.129 403.591,222.963 394.5,225C 388.023,227.821 384.356,232.655 383.5,239.5C 383.828,229.172 389.161,223.839 399.5,223.5C 407.027,223.18 412.193,226.513 415,233.5C 415.667,241.833 415.667,250.167 415,258.5C 414.814,261.036 414.314,263.369 413.5,265.5 Z"/></g>
<g><path style="opacity:1" fill="#225ffe" d="M 127.5,239.5 C 126.89,250.547 128.223,261.214 131.5,271.5C 132.665,278.665 134.998,285.331 138.5,291.5C 139.338,291.842 139.672,292.508 139.5,293.5C 139.794,296.754 141.127,299.421 143.5,301.5C 145.506,306.855 148.506,311.521 152.5,315.5C 155.046,320.719 158.713,325.052 163.5,328.5C 164.833,329.167 165.833,330.167 166.5,331.5C 169.948,336.287 174.281,339.954 179.5,342.5C 183.479,346.494 188.145,349.494 193.5,351.5C 195.579,353.873 198.246,355.206 201.5,355.5C 203.426,357.293 205.759,358.293 208.5,358.5C 213.085,361.14 218.085,362.806 223.5,363.5C 228.525,365.504 233.858,366.504 239.5,366.5C 250.167,367.833 260.833,367.833 271.5,366.5C 277.142,366.504 282.475,365.504 287.5,363.5C 294.665,362.335 301.331,360.002 307.5,356.5C 311.42,355.873 314.753,354.207 317.5,351.5C 319.674,351.25 321.341,350.25 322.5,348.5C 326.049,347.277 329.049,345.277 331.5,342.5C 336.719,339.954 341.052,336.287 344.5,331.5C 345.167,330.167 346.167,329.167 347.5,328.5C 352.287,325.052 355.954,320.719 358.5,315.5C 362.494,311.521 365.494,306.855 367.5,301.5C 378.75,282.504 384.084,261.837 383.5,239.5C 384.356,232.655 388.023,227.821 394.5,225C 403.591,222.963 410.091,226.129 414,234.5C 414.601,244.847 414.434,255.181 413.5,265.5C 410.679,278.309 407.012,290.976 402.5,303.5C 399.326,308.516 396.659,313.849 394.5,319.5C 391.004,323.819 388.004,328.485 385.5,333.5C 383.738,334.262 382.738,335.596 382.5,337.5C 378.132,341.867 374.132,346.533 370.5,351.5C 369.167,353.5 367.5,355.167 365.5,356.5C 362.236,358.094 359.569,360.427 357.5,363.5C 355.251,364.08 353.585,365.413 352.5,367.5C 350.596,367.738 349.262,368.738 348.5,370.5C 344.975,371.759 341.975,373.759 339.5,376.5C 336.669,377.079 334.336,378.412 332.5,380.5C 328.182,381.992 324.182,383.992 320.5,386.5C 316.863,387.263 313.53,388.597 310.5,390.5C 304.95,391.796 299.617,393.463 294.5,395.5C 289.256,395.882 284.256,396.882 279.5,398.5C 277.052,399.473 274.385,399.806 271.5,399.5C 271.5,415.5 271.5,431.5 271.5,447.5C 279.5,447.5 287.5,447.5 295.5,447.5C 309.216,450.931 313.382,459.264 308,472.5C 304.536,476.31 300.369,478.644 295.5,479.5C 268.833,479.5 242.167,479.5 215.5,479.5C 201.784,476.069 197.618,467.736 203,454.5C 206.464,450.69 210.631,448.356 215.5,447.5C 223.5,447.5 231.5,447.5 239.5,447.5C 239.5,431.5 239.5,415.5 239.5,399.5C 226.431,397.318 213.431,394.318 200.5,390.5C 197.47,388.597 194.137,387.263 190.5,386.5C 186.818,383.992 182.818,381.992 178.5,380.5C 174.677,377.084 170.343,374.418 165.5,372.5C 165.027,371.094 164.027,370.427 162.5,370.5C 161.738,368.738 160.404,367.738 158.5,367.5C 157.415,365.413 155.749,364.08 153.5,363.5C 151.431,360.427 148.764,358.094 145.5,356.5C 144.167,355.833 143.167,354.833 142.5,353.5C 142.167,352.5 141.5,351.833 140.5,351.5C 139.833,351.5 139.5,351.167 139.5,350.5C 135.07,344.64 130.403,338.974 125.5,333.5C 122.996,328.485 119.996,323.819 116.5,319.5C 114.341,313.849 111.674,308.516 108.5,303.5C 103.988,290.976 100.321,278.309 97.5,265.5C 96.5659,255.181 96.3992,244.847 97,234.5C 98.0608,231.438 99.8941,228.938 102.5,227C 115.736,221.618 124.069,225.784 127.5,239.5 Z"/></g>
<g><path style="opacity:0.411" fill="#000000" d="M 127.5,239.5 C 128.343,250.086 129.676,260.753 131.5,271.5C 128.223,261.214 126.89,250.547 127.5,239.5 Z"/></g>
<g><path style="opacity:0.402" fill="#000000" d="M 191.5,239.5 C 192.458,244.658 193.125,249.991 193.5,255.5C 191.74,250.447 191.073,245.114 191.5,239.5 Z"/></g>
<g><path style="opacity:0.411" fill="#000000" d="M 319.5,239.5 C 319.927,245.114 319.26,250.447 317.5,255.5C 317.875,249.991 318.542,244.658 319.5,239.5 Z"/></g>
<g><path style="opacity:0.566" fill="#000000" d="M 351.5,239.5 C 352.163,252.21 349.829,264.21 344.5,275.5C 348.358,263.665 350.691,251.665 351.5,239.5 Z"/></g>
<g><path style="opacity:0.468" fill="#000000" d="M 383.5,239.5 C 384.084,261.837 378.75,282.504 367.5,301.5C 377.244,281.852 382.578,261.186 383.5,239.5 Z"/></g>
<g><path style="opacity:0.509" fill="#000000" d="M 160.5,253.5 C 161.785,256.589 162.451,259.922 162.5,263.5C 160.989,260.456 160.322,257.122 160.5,253.5 Z"/></g>
<g><path style="opacity:0.49" fill="#000000" d="M 193.5,255.5 C 195.208,258.95 196.541,262.617 197.5,266.5C 195,263.34 193.667,259.673 193.5,255.5 Z"/></g>
<g><path style="opacity:0.5" fill="#000000" d="M 317.5,255.5 C 317.333,259.673 316,263.34 313.5,266.5C 314.459,262.617 315.792,258.95 317.5,255.5 Z"/></g>
<g><path style="opacity:0.506" fill="#000000" d="M 162.5,263.5 C 164.405,267.216 165.739,271.216 166.5,275.5C 164.194,271.915 162.861,267.915 162.5,263.5 Z"/></g>
<g><path style="opacity:0.509" fill="#000000" d="M 97.5,265.5 C 100.321,278.309 103.988,290.976 108.5,303.5C 102.435,291.627 98.7684,278.96 97.5,265.5 Z"/></g>
<g><path style="opacity:0.499" fill="#000000" d="M 413.5,265.5 C 412.232,278.96 408.565,291.627 402.5,303.5C 407.012,290.976 410.679,278.309 413.5,265.5 Z"/></g>
<g><path style="opacity:0.574" fill="#000000" d="M 313.5,266.5 C 313.771,268.38 313.104,269.713 311.5,270.5C 311.66,268.847 312.326,267.514 313.5,266.5 Z"/></g>
<g><path style="opacity:0.516" fill="#000000" d="M 199.5,270.5 C 206.167,280.5 214.5,288.833 224.5,295.5C 213.167,290.167 204.833,281.833 199.5,270.5 Z"/></g>
<g><path style="opacity:0.519" fill="#000000" d="M 311.5,270.5 C 306.167,281.833 297.833,290.167 286.5,295.5C 296.5,288.833 304.833,280.5 311.5,270.5 Z"/></g>
<g><path style="opacity:0.483" fill="#000000" d="M 131.5,271.5 C 134.208,277.953 136.541,284.62 138.5,291.5C 134.998,285.331 132.665,278.665 131.5,271.5 Z"/></g>
<g><path style="opacity:0.503" fill="#000000" d="M 166.5,275.5 C 169.341,279.849 171.674,284.516 173.5,289.5C 170.126,285.419 167.793,280.753 166.5,275.5 Z"/></g>
<g><path style="opacity:0.513" fill="#000000" d="M 344.5,275.5 C 342.79,281.924 339.79,287.591 335.5,292.5C 338.249,286.667 341.249,281.001 344.5,275.5 Z"/></g>
<g><path style="opacity:0.5" fill="#000000" d="M 173.5,289.5 C 174.906,289.973 175.573,290.973 175.5,292.5C 174.094,292.027 173.427,291.027 173.5,289.5 Z"/></g>
<g><path style="opacity:0.507" fill="#000000" d="M 175.5,292.5 C 176.906,292.973 177.573,293.973 177.5,295.5C 176.094,295.027 175.427,294.027 175.5,292.5 Z"/></g>
<g><path style="opacity:0.522" fill="#000000" d="M 335.5,292.5 C 329.548,302.786 321.548,311.119 311.5,317.5C 320.201,309.8 328.201,301.467 335.5,292.5 Z"/></g>
<g><path style="opacity:0.577" fill="#000000" d="M 139.5,293.5 C 141.341,295.849 142.674,298.515 143.5,301.5C 141.127,299.421 139.794,296.754 139.5,293.5 Z"/></g>
<g><path style="opacity:0.52" fill="#000000" d="M 177.5,295.5 C 185.2,304.201 193.533,312.201 202.5,319.5C 192.214,313.548 183.881,305.548 177.5,295.5 Z"/></g>
<g><path style="opacity:0.514" fill="#000000" d="M 228.5,297.5 C 232.383,298.459 236.05,299.792 239.5,301.5C 235.327,301.333 231.66,300 228.5,297.5 Z"/></g>
<g><path style="opacity:0.492" fill="#000000" d="M 282.5,297.5 C 279.34,300 275.673,301.333 271.5,301.5C 274.95,299.792 278.617,298.459 282.5,297.5 Z"/></g>
<g><path style="opacity:0.519" fill="#000000" d="M 143.5,301.5 C 146.996,305.819 149.996,310.485 152.5,315.5C 148.506,311.521 145.506,306.855 143.5,301.5 Z"/></g>
<g><path style="opacity:0.52" fill="#000000" d="M 367.5,301.5 C 365.494,306.855 362.494,311.521 358.5,315.5C 361.004,310.485 364.004,305.819 367.5,301.5 Z"/></g>
<g><path style="opacity:0.482" fill="#000000" d="M 108.5,303.5 C 111.674,308.516 114.341,313.849 116.5,319.5C 112.793,314.753 110.126,309.419 108.5,303.5 Z"/></g>
<g><path style="opacity:0.472" fill="#000000" d="M 402.5,303.5 C 400.874,309.419 398.207,314.753 394.5,319.5C 396.659,313.849 399.326,308.516 402.5,303.5 Z"/></g>
<g><path style="opacity:0.47" fill="#000000" d="M 152.5,315.5 C 156.536,319.534 160.202,323.868 163.5,328.5C 158.713,325.052 155.046,320.719 152.5,315.5 Z"/></g>
<g><path style="opacity:0.469" fill="#000000" d="M 358.5,315.5 C 355.954,320.719 352.287,325.052 347.5,328.5C 350.798,323.868 354.464,319.534 358.5,315.5 Z"/></g>
<g><path style="opacity:0.503" fill="#000000" d="M 311.5,317.5 C 311.027,318.906 310.027,319.573 308.5,319.5C 308.973,318.094 309.973,317.427 311.5,317.5 Z"/></g>
<g><path style="opacity:0.482" fill="#000000" d="M 116.5,319.5 C 119.996,323.819 122.996,328.485 125.5,333.5C 121.506,329.521 118.506,324.855 116.5,319.5 Z"/></g>
<g><path style="opacity:0.507" fill="#000000" d="M 202.5,319.5 C 208.333,322.249 213.999,325.249 219.5,328.5C 213.076,326.79 207.409,323.79 202.5,319.5 Z"/></g>
<g><path style="opacity:0.507" fill="#000000" d="M 308.5,319.5 C 308.027,320.906 307.027,321.573 305.5,321.5C 305.973,320.094 306.973,319.427 308.5,319.5 Z"/></g>
<g><path style="opacity:0.479" fill="#000000" d="M 394.5,319.5 C 392.494,324.855 389.494,329.521 385.5,333.5C 388.004,328.485 391.004,323.819 394.5,319.5 Z"/></g>
<g><path style="opacity:0.5" fill="#000000" d="M 305.5,321.5 C 301.419,324.874 296.753,327.207 291.5,328.5C 295.849,325.659 300.516,323.326 305.5,321.5 Z"/></g>
<g><path style="opacity:0.507" fill="#000000" d="M 219.5,328.5 C 226.936,330.523 234.27,332.523 241.5,334.5C 233.643,334.038 226.309,332.038 219.5,328.5 Z"/></g>
<g><path style="opacity:0.501" fill="#000000" d="M 291.5,328.5 C 287.915,330.806 283.915,332.139 279.5,332.5C 283.216,330.595 287.216,329.261 291.5,328.5 Z"/></g>
<g><path style="opacity:0.478" fill="#000000" d="M 166.5,331.5 C 171.132,334.798 175.466,338.464 179.5,342.5C 174.281,339.954 169.948,336.287 166.5,331.5 Z"/></g>
<g><path style="opacity:0.469" fill="#000000" d="M 344.5,331.5 C 341.052,336.287 336.719,339.954 331.5,342.5C 335.534,338.464 339.868,334.798 344.5,331.5 Z"/></g>
<g><path style="opacity:0.506" fill="#000000" d="M 279.5,332.5 C 276.456,334.011 273.122,334.678 269.5,334.5C 272.589,333.215 275.922,332.549 279.5,332.5 Z"/></g>
<g><path style="opacity:0.513" fill="#000000" d="M 125.5,333.5 C 130.403,338.974 135.07,344.64 139.5,350.5C 133.641,345.762 128.974,340.096 125.5,333.5 Z"/></g>
<g><path style="opacity:0.535" fill="#000000" d="M 385.5,333.5 C 385.262,335.404 384.262,336.738 382.5,337.5C 382.738,335.596 383.738,334.262 385.5,333.5 Z"/></g>
<g><path style="opacity:0.547" fill="#000000" d="M 382.5,337.5 C 379.617,343.055 375.617,347.722 370.5,351.5C 374.132,346.533 378.132,341.867 382.5,337.5 Z"/></g>
<g><path style="opacity:0.525" fill="#000000" d="M 179.5,342.5 C 184.515,345.004 189.181,348.004 193.5,351.5C 188.145,349.494 183.479,346.494 179.5,342.5 Z"/></g>
<g><path style="opacity:0.504" fill="#000000" d="M 331.5,342.5 C 329.049,345.277 326.049,347.277 322.5,348.5C 324.975,345.759 327.975,343.759 331.5,342.5 Z"/></g>
<g><path style="opacity:0.47" fill="#000000" d="M 322.5,348.5 C 321.341,350.25 319.674,351.25 317.5,351.5C 318.659,349.75 320.326,348.75 322.5,348.5 Z"/></g>
<g><path style="opacity:0.366" fill="#000000" d="M 140.5,351.5 C 141.5,351.833 142.167,352.5 142.5,353.5C 141.167,353.5 140.5,352.833 140.5,351.5 Z"/></g>
<g><path style="opacity:0.588" fill="#000000" d="M 193.5,351.5 C 196.485,352.326 199.151,353.659 201.5,355.5C 198.246,355.206 195.579,353.873 193.5,351.5 Z"/></g>
<g><path style="opacity:0.597" fill="#000000" d="M 317.5,351.5 C 314.753,354.207 311.42,355.873 307.5,356.5C 310.515,354.326 313.849,352.659 317.5,351.5 Z"/></g>
<g><path style="opacity:0.432" fill="#000000" d="M 201.5,355.5 C 204.241,355.707 206.574,356.707 208.5,358.5C 205.759,358.293 203.426,357.293 201.5,355.5 Z"/></g>
<g><path style="opacity:0.545" fill="#000000" d="M 145.5,356.5 C 148.764,358.094 151.431,360.427 153.5,363.5C 150.236,361.906 147.569,359.573 145.5,356.5 Z"/></g>
<g><path style="opacity:0.489" fill="#000000" d="M 307.5,356.5 C 301.331,360.002 294.665,362.335 287.5,363.5C 293.953,360.792 300.62,358.459 307.5,356.5 Z"/></g>
<g><path style="opacity:0.543" fill="#000000" d="M 365.5,356.5 C 363.431,359.573 360.764,361.906 357.5,363.5C 359.569,360.427 362.236,358.094 365.5,356.5 Z"/></g>
<g><path style="opacity:0.482" fill="#000000" d="M 208.5,358.5 C 213.784,359.595 218.784,361.261 223.5,363.5C 218.085,362.806 213.085,361.14 208.5,358.5 Z"/></g>
<g><path style="opacity:0.532" fill="#000000" d="M 153.5,363.5 C 155.749,364.08 157.415,365.413 158.5,367.5C 156.251,366.92 154.585,365.587 153.5,363.5 Z"/></g>
<g><path style="opacity:0.501" fill="#000000" d="M 223.5,363.5 C 229.049,364.011 234.383,365.011 239.5,366.5C 233.858,366.504 228.525,365.504 223.5,363.5 Z"/></g>
<g><path style="opacity:0.489" fill="#000000" d="M 287.5,363.5 C 282.475,365.504 277.142,366.504 271.5,366.5C 276.617,365.011 281.951,364.011 287.5,363.5 Z"/></g>
<g><path style="opacity:0.534" fill="#000000" d="M 357.5,363.5 C 356.415,365.587 354.749,366.92 352.5,367.5C 353.585,365.413 355.251,364.08 357.5,363.5 Z"/></g>
<g><path style="opacity:0.486" fill="#000000" d="M 158.5,367.5 C 160.404,367.738 161.738,368.738 162.5,370.5C 160.596,370.262 159.262,369.262 158.5,367.5 Z"/></g>
<g><path style="opacity:0.516" fill="#000000" d="M 352.5,367.5 C 351.738,369.262 350.404,370.262 348.5,370.5C 349.262,368.738 350.596,367.738 352.5,367.5 Z"/></g>
<g><path style="opacity:0.524" fill="#000000" d="M 162.5,370.5 C 164.027,370.427 165.027,371.094 165.5,372.5C 163.973,372.573 162.973,371.906 162.5,370.5 Z"/></g>
<g><path style="opacity:0.46" fill="#000000" d="M 348.5,370.5 C 346.049,373.277 343.049,375.277 339.5,376.5C 341.975,373.759 344.975,371.759 348.5,370.5 Z"/></g>
<g><path style="opacity:0.522" fill="#000000" d="M 165.5,372.5 C 170.343,374.418 174.677,377.084 178.5,380.5C 174.577,379.205 170.91,377.372 167.5,375C 166.619,374.292 165.953,373.458 165.5,372.5 Z"/></g>
<g><path style="opacity:0.539" fill="#000000" d="M 339.5,376.5 C 337.664,378.588 335.331,379.921 332.5,380.5C 334.336,378.412 336.669,377.079 339.5,376.5 Z"/></g>
<g><path style="opacity:0.433" fill="#000000" d="M 178.5,380.5 C 182.818,381.992 186.818,383.992 190.5,386.5C 185.914,385.54 181.914,383.54 178.5,380.5 Z"/></g>
<g><path style="opacity:0.451" fill="#000000" d="M 332.5,380.5 C 329.086,383.54 325.086,385.54 320.5,386.5C 324.182,383.992 328.182,381.992 332.5,380.5 Z"/></g>
<g><path style="opacity:0.512" fill="#000000" d="M 190.5,386.5 C 194.137,387.263 197.47,388.597 200.5,390.5C 196.703,390.128 193.37,388.794 190.5,386.5 Z"/></g>
<g><path style="opacity:0.535" fill="#000000" d="M 320.5,386.5 C 317.63,388.794 314.297,390.128 310.5,390.5C 313.53,388.597 316.863,387.263 320.5,386.5 Z"/></g>
<g><path style="opacity:0.505" fill="#000000" d="M 200.5,390.5 C 213.431,394.318 226.431,397.318 239.5,399.5C 225.843,398.834 212.843,395.834 200.5,390.5 Z"/></g>
<g><path style="opacity:0.485" fill="#000000" d="M 310.5,390.5 C 305.633,393.343 300.3,395.009 294.5,395.5C 299.617,393.463 304.95,391.796 310.5,390.5 Z"/></g>
<g><path style="opacity:0.521" fill="#000000" d="M 294.5,395.5 C 289.794,397.375 284.794,398.375 279.5,398.5C 284.256,396.882 289.256,395.882 294.5,395.5 Z"/></g>
<g><path style="opacity:0.57" fill="#000000" d="M 215.5,447.5 C 210.631,448.356 206.464,450.69 203,454.5C 197.618,467.736 201.784,476.069 215.5,479.5C 205.172,479.172 199.839,473.839 199.5,463.5C 199.839,453.161 205.172,447.828 215.5,447.5 Z"/></g>
<g><path style="opacity:0.564" fill="#000000" d="M 295.5,447.5 C 305.828,447.828 311.161,453.161 311.5,463.5C 311.161,473.839 305.828,479.172 295.5,479.5C 300.369,478.644 304.536,476.31 308,472.5C 313.382,459.264 309.216,450.931 295.5,447.5 Z"/></g>
</svg>
