<svg width="33" height="37" viewBox="0 0 33 37" fill="none" xmlns="http://www.w3.org/2000/svg">
<mask id="path-1-outside-1_33_67" maskUnits="userSpaceOnUse" x="-0.0555573" y="0.311157" width="33" height="37" fill="black">
<rect fill="white" x="-0.0555573" y="0.311157" width="33" height="37"/>
<path d="M28.3061 19.5054C24.7771 23.9126 18.1925 24.7406 13.599 21.3547C9.00547 17.9688 8.14251 11.6513 11.6715 7.24404C15.2005 2.83682 21.7851 2.00887 26.3786 5.39475C30.9722 8.78064 31.8351 15.0982 28.3061 19.5054Z"/>
</mask>
<path d="M14.3909 22.2678C14.8013 21.7553 14.7185 21.0071 14.2059 20.5967C13.6934 20.1863 12.9452 20.2691 12.5348 20.7816L14.3909 22.2678ZM9.60311 24.4429C9.1927 24.9554 9.27549 25.7036 9.78803 26.114C10.3006 26.5244 11.0488 26.4416 11.4592 25.9291L9.60311 24.4429ZM8.1412 21.9474C7.61266 21.5578 6.86837 21.6704 6.47879 22.199C6.0892 22.7275 6.20185 23.4718 6.73038 23.8614L8.1412 21.9474ZM13.1574 28.5987C13.6859 28.9883 14.4302 28.8757 14.8198 28.3471C15.2094 27.8186 15.0967 27.0743 14.5682 26.6847L13.1574 28.5987ZM6.48573 34.4615L7.41376 35.2046L6.48573 34.4615ZM2.46885 31.5006L1.54082 30.7575L2.46885 31.5006ZM2.93429 34.908L2.22888 35.865L2.93429 34.908ZM13.4628 21.5247L12.5348 20.7816L9.60311 24.4429L10.5311 25.186L11.4592 25.9291L14.3909 22.2678L13.4628 21.5247ZM7.43579 22.9044L6.73038 23.8614L13.1574 28.5987L13.8628 27.6417L14.5682 26.6847L8.1412 21.9474L7.43579 22.9044ZM12.6577 26.7535L11.7297 26.0104L5.55769 33.7183L6.48573 34.4615L7.41376 35.2046L13.5858 27.4966L12.6577 26.7535ZM2.46885 31.5006L3.39689 32.2437L9.56889 24.5358L8.64085 23.7927L7.71282 23.0496L1.54082 30.7575L2.46885 31.5006ZM2.93429 34.908L3.6397 33.951C3.06377 33.5265 2.97469 32.771 3.39689 32.2437L2.46885 31.5006L1.54082 30.7575C0.258667 32.3587 0.58635 34.6543 2.22888 35.865L2.93429 34.908ZM6.48573 34.4615L5.55769 33.7183C5.11139 34.2757 4.24436 34.3967 3.6397 33.951L2.93429 34.908L2.22888 35.865C3.84267 37.0545 6.15572 36.7757 7.41376 35.2046L6.48573 34.4615ZM28.3061 19.5054L26.45 18.0192C23.7328 21.4127 18.5942 22.0827 15.0098 19.4407L13.599 21.3547L12.1882 23.2687C17.7908 27.3984 25.8214 26.4126 30.1622 20.9916L28.3061 19.5054ZM13.599 21.3547L15.0098 19.4407C11.4829 16.841 10.8585 12.0635 13.5276 8.73025L11.6715 7.24404L9.81546 5.75782C5.42649 11.239 6.52805 19.0966 12.1882 23.2687L13.599 21.3547ZM11.6715 7.24404L13.5276 8.73025C16.2449 5.33678 21.3834 4.66671 24.9678 7.30876L26.3786 5.39475L27.7895 3.48075C22.1868 -0.648966 14.1562 0.336867 9.81546 5.75782L11.6715 7.24404ZM26.3786 5.39475L24.9678 7.30876C28.4947 9.90845 29.1191 14.6859 26.45 18.0192L28.3061 19.5054L30.1622 20.9916C34.5511 15.5104 33.4496 7.65282 27.7895 3.48075L26.3786 5.39475Z" fill="#2260FF" mask="url(#path-1-outside-1_33_67)"/>
</svg>
