<?xml version="1.0" encoding="UTF-8"?>
<!DOCTYPE svg PUBLIC "-//W3C//DTD SVG 1.1//EN" "http://www.w3.org/Graphics/SVG/1.1/DTD/svg11.dtd">
<svg xmlns="http://www.w3.org/2000/svg" version="1.1" width="512px" height="512px" style="shape-rendering:geometricPrecision; text-rendering:geometricPrecision; image-rendering:optimizeQuality; fill-rule:evenodd; clip-rule:evenodd" xmlns:xlink="http://www.w3.org/1999/xlink">
<g><path style="opacity:0.535" fill="#000001" d="M 165.5,0.5 C 165.5,0.166667 165.5,-0.166667 165.5,-0.5C 178.167,-0.5 190.833,-0.5 203.5,-0.5C 214.021,0.937934 224.355,3.27127 234.5,6.5C 211.826,1.08368 188.826,-0.916317 165.5,0.5 Z"/></g>
<g><path style="opacity:1" fill="#225ffd" d="M 165.5,0.5 C 188.826,-0.916317 211.826,1.08368 234.5,6.5C 238.216,8.40532 242.216,9.73865 246.5,10.5C 247.791,10.2627 248.791,10.596 249.5,11.5C 253.877,14.0178 258.544,16.0178 263.5,17.5C 264.492,17.3284 265.158,17.6618 265.5,18.5C 267.181,20.0075 269.181,21.0075 271.5,21.5C 274.976,24.6232 278.976,26.9565 283.5,28.5C 283.973,29.9063 284.973,30.573 286.5,30.5C 289.601,33.9331 293.268,36.5998 297.5,38.5C 298.585,40.5869 300.251,41.9202 302.5,42.5C 303.167,42.5 303.5,42.8333 303.5,43.5C 305.9,46.9031 308.9,49.5698 312.5,51.5C 313.167,51.5 313.5,51.8333 313.5,52.5C 313.833,53.5 314.5,54.1667 315.5,54.5C 316.167,54.5 316.5,54.8333 316.5,55.5C 318.766,59.4356 321.766,62.7689 325.5,65.5C 326.08,67.7488 327.413,69.4154 329.5,70.5C 329.738,72.4044 330.738,73.7377 332.5,74.5C 332.738,76.4044 333.738,77.7377 335.5,78.5C 335.427,80.0269 336.094,81.0269 337.5,81.5C 338.383,84.7043 340.05,87.3709 342.5,89.5C 342.75,91.674 343.75,93.3406 345.5,94.5C 348.341,98.8489 350.674,103.516 352.5,108.5C 352.402,110.553 353.069,112.22 354.5,113.5C 356.125,119.381 358.125,125.047 360.5,130.5C 360.41,133.152 361.076,135.485 362.5,137.5C 364.708,143.873 366.041,150.54 366.5,157.5C 367.813,174.501 367.813,191.501 366.5,208.5C 364.533,217.718 362.533,227.052 360.5,236.5C 360.405,238.786 359.738,240.786 358.5,242.5C 356.399,245.797 355.065,249.463 354.5,253.5C 354.672,254.492 354.338,255.158 353.5,255.5C 351.375,258.088 350.042,261.088 349.5,264.5C 348.326,265.514 347.66,266.847 347.5,268.5C 345.412,270.336 344.079,272.669 343.5,275.5C 340.004,279.819 337.004,284.485 334.5,289.5C 333.094,289.973 332.427,290.973 332.5,292.5C 329.833,293.833 329.833,295.167 332.5,296.5C 333.911,298.914 335.911,300.581 338.5,301.5C 338.973,302.906 339.973,303.573 341.5,303.5C 343.617,305.655 346.284,306.655 349.5,306.5C 352.533,307.718 355.2,307.052 357.5,304.5C 360.764,303.676 364.098,303.342 367.5,303.5C 369.849,305.341 372.515,306.674 375.5,307.5C 376.911,309.914 378.911,311.581 381.5,312.5C 382.5,312.833 383.167,313.5 383.5,314.5C 391.111,323.779 399.445,332.446 408.5,340.5C 410.5,341.833 412.167,343.5 413.5,345.5C 421.111,354.779 429.445,363.446 438.5,371.5C 440.5,372.833 442.167,374.5 443.5,376.5C 451.445,386.113 460.111,395.113 469.5,403.5C 471.167,404.5 472.5,405.833 473.5,407.5C 481.445,417.113 490.111,426.113 499.5,434.5C 501.167,435.5 502.5,436.833 503.5,438.5C 506.385,442.937 508.719,447.604 510.5,452.5C 510.167,455.833 509.833,459.167 509.5,462.5C 507.992,464.181 506.992,466.181 506.5,468.5C 499.833,474.5 493.5,480.833 487.5,487.5C 486.5,489.167 485.167,490.5 483.5,491.5C 477.558,495.773 472.224,500.773 467.5,506.5C 458.725,511.424 449.725,511.757 440.5,507.5C 435.833,502.167 430.833,497.167 425.5,492.5C 423.833,491.5 422.5,490.167 421.5,488.5C 413.555,478.887 404.889,469.887 395.5,461.5C 393.833,460.5 392.5,459.167 391.5,457.5C 383.889,448.221 375.555,439.554 366.5,431.5C 364.833,430.5 363.5,429.167 362.5,427.5C 354.555,417.887 345.889,408.887 336.5,400.5C 334.833,399.5 333.5,398.167 332.5,396.5C 326.557,388.889 319.891,381.889 312.5,375.5C 312.262,373.596 311.262,372.262 309.5,371.5C 309.008,369.181 308.008,367.181 306.5,365.5C 304.569,360.322 305.403,355.655 309,351.5C 310.706,343.454 308.54,336.788 302.5,331.5C 301.969,329.456 300.802,327.789 299,326.5C 297.955,327.373 297.122,328.373 296.5,329.5C 293.63,330.433 291.296,332.1 289.5,334.5C 287.596,334.738 286.262,335.738 285.5,337.5C 280.976,339.043 276.976,341.377 273.5,344.5C 268.516,346.326 263.849,348.659 259.5,351.5C 259.158,352.338 258.492,352.672 257.5,352.5C 255.447,352.402 253.78,353.069 252.5,354.5C 249.458,354.733 246.792,355.733 244.5,357.5C 242.214,357.595 240.214,358.262 238.5,359.5C 234.521,359.742 230.854,360.742 227.5,362.5C 224.456,364.011 221.122,364.678 217.5,364.5C 205.21,365.996 192.877,366.996 180.5,367.5C 172.271,367.822 164.271,367.155 156.5,365.5C 153.091,364.097 149.425,363.43 145.5,363.5C 143.095,362.232 140.428,361.565 137.5,361.5C 132.383,359.463 127.05,357.796 121.5,356.5C 119.208,354.733 116.542,353.733 113.5,353.5C 106.484,349.325 99.151,345.659 91.5,342.5C 89.3709,340.05 86.7043,338.383 83.5,337.5C 76.1753,331.836 68.842,326.169 61.5,320.5C 57.5,315.833 53.1667,311.5 48.5,307.5C 47.8333,307.5 47.5,307.167 47.5,306.5C 45.9059,303.236 43.5725,300.569 40.5,298.5C 38.5998,294.268 35.9331,290.601 32.5,287.5C 31.6597,285.147 30.3264,283.147 28.5,281.5C 26.9565,276.976 24.6232,272.976 21.5,269.5C 20.6618,269.158 20.3284,268.492 20.5,267.5C 19.2895,262.749 17.2895,258.416 14.5,254.5C 14.5979,252.447 13.9313,250.78 12.5,249.5C 11.596,248.791 11.2627,247.791 11.5,246.5C 10.2036,240.95 8.53698,235.617 6.5,230.5C 5.2318,228.095 4.56513,225.428 4.5,222.5C 2.86173,211.057 1.5284,199.724 0.5,188.5C 0.166667,188.5 -0.166667,188.5 -0.5,188.5C -0.5,185.167 -0.5,181.833 -0.5,178.5C -0.166667,178.5 0.166667,178.5 0.5,178.5C 1.58485,165.895 3.25151,153.229 5.5,140.5C 5.56513,137.572 6.2318,134.905 7.5,132.5C 8.73838,130.786 9.40505,128.786 9.5,126.5C 9.26269,125.209 9.59603,124.209 10.5,123.5C 12.7372,119.466 14.4039,115.132 15.5,110.5C 19.0078,104.818 22.0078,98.8177 24.5,92.5C 26.2503,91.3406 27.2503,89.674 27.5,87.5C 29.2503,86.3406 30.2503,84.674 30.5,82.5C 32.9,80.7036 34.5667,78.3702 35.5,75.5C 37.2624,74.7377 38.2624,73.4044 38.5,71.5C 40.2624,70.7377 41.2624,69.4044 41.5,67.5C 44.9031,65.1002 47.5698,62.1002 49.5,58.5C 49.5,57.8333 49.8333,57.5 50.5,57.5C 53.5,55.1667 56.1667,52.5 58.5,49.5C 62.4356,47.2343 65.7689,44.2343 68.5,40.5C 72.7321,38.5998 76.3988,35.9331 79.5,32.5C 83.4394,30.5538 87.106,28.2205 90.5,25.5C 92.674,25.2503 94.3406,24.2503 95.5,22.5C 99.8178,21.0078 103.818,19.0078 107.5,16.5C 107.842,15.6618 108.508,15.3284 109.5,15.5C 112.241,15.2927 114.574,14.2927 116.5,12.5C 122.784,11.072 128.784,9.07204 134.5,6.5C 138.239,4.89839 142.239,3.89839 146.5,3.5C 150.733,3.46134 154.733,2.79468 158.5,1.5C 160.607,0.531782 162.941,0.198448 165.5,0.5 Z M 197.5,57.5 C 199.607,58.4682 201.941,58.8016 204.5,58.5C 207.589,59.7846 210.922,60.4512 214.5,60.5C 215.568,61.4345 216.901,61.7678 218.5,61.5C 222.216,63.4053 226.216,64.7387 230.5,65.5C 232.426,67.2927 234.759,68.2927 237.5,68.5C 237.842,69.3382 238.508,69.6716 239.5,69.5C 241.181,71.0075 243.181,72.0075 245.5,72.5C 246.659,74.2503 248.326,75.2503 250.5,75.5C 252.975,78.2411 255.975,80.2411 259.5,81.5C 260.262,83.2624 261.596,84.2624 263.5,84.5C 265.569,87.5725 268.236,89.9059 271.5,91.5C 271.5,92.1667 271.833,92.5 272.5,92.5C 273.167,93.8333 274.167,94.8333 275.5,95.5C 275.5,96.1667 275.833,96.5 276.5,96.5C 278.094,99.7642 280.427,102.431 283.5,104.5C 283.738,106.404 284.738,107.738 286.5,108.5C 287.759,112.025 289.759,115.025 292.5,117.5C 292.75,119.674 293.75,121.341 295.5,122.5C 295.992,124.819 296.992,126.819 298.5,128.5C 299.042,131.912 300.375,134.912 302.5,137.5C 302.263,138.791 302.596,139.791 303.5,140.5C 303.928,143.785 304.928,146.785 306.5,149.5C 306.898,154.412 307.898,159.079 309.5,163.5C 311.468,181.68 310.468,199.68 306.5,217.5C 304.125,222.953 302.125,228.619 300.5,234.5C 297.992,238.182 295.992,242.182 294.5,246.5C 292.75,247.659 291.75,249.326 291.5,251.5C 286.79,256.877 282.457,262.543 278.5,268.5C 277.833,268.5 277.5,268.833 277.5,269.5C 274.5,271.833 271.833,274.5 269.5,277.5C 266.573,278.757 264.239,280.757 262.5,283.5C 260.596,283.738 259.262,284.738 258.5,286.5C 254.561,288.446 250.894,290.779 247.5,293.5C 242.516,295.326 237.849,297.659 233.5,300.5C 231.447,300.402 229.78,301.069 228.5,302.5C 223.951,303.463 219.617,304.796 215.5,306.5C 200.292,309.106 184.958,310.106 169.5,309.5C 165.705,308.383 161.705,307.717 157.5,307.5C 150.988,305.332 144.321,303.332 137.5,301.5C 134.912,299.375 131.912,298.042 128.5,297.5C 127.486,296.326 126.153,295.66 124.5,295.5C 123.341,293.75 121.674,292.75 119.5,292.5C 115.777,289.449 111.777,286.782 107.5,284.5C 106.415,282.413 104.749,281.08 102.5,280.5C 102.5,279.833 102.167,279.5 101.5,279.5C 97.1667,274.5 92.5,269.833 87.5,265.5C 86.9202,263.251 85.5869,261.585 83.5,260.5C 81.2181,256.223 78.5515,252.223 75.5,248.5C 75.2503,246.326 74.2503,244.659 72.5,243.5C 72.3404,241.847 71.6737,240.514 70.5,239.5C 69.9579,236.088 68.6246,233.088 66.5,230.5C 63.9883,222.108 61.655,213.775 59.5,205.5C 57.4612,186.316 58.4612,167.316 62.5,148.5C 63.7384,146.786 64.405,144.786 64.5,142.5C 65.7384,140.786 66.405,138.786 66.5,136.5C 70.7513,128.999 74.7513,121.332 78.5,113.5C 80.2624,112.738 81.2624,111.404 81.5,109.5C 83.2624,108.738 84.2624,107.404 84.5,105.5C 86.914,104.089 88.5806,102.089 89.5,99.5C 90.1667,99.5 90.5,99.1667 90.5,98.5C 93.8333,95.8333 96.8333,92.8333 99.5,89.5C 100.167,89.5 100.5,89.1667 100.5,88.5C 103.089,87.5806 105.089,85.914 106.5,83.5C 110.392,81.9379 113.725,79.6046 116.5,76.5C 118.674,76.2503 120.341,75.2503 121.5,73.5C 125.818,72.0078 129.818,70.0078 133.5,67.5C 134.492,67.6716 135.158,67.3382 135.5,66.5C 142.051,64.8704 148.384,62.8704 154.5,60.5C 156.099,60.7678 157.432,60.4345 158.5,59.5C 171.437,57.8356 184.437,57.1689 197.5,57.5 Z"/></g>
<g><path style="opacity:0.529" fill="#000001" d="M 158.5,1.5 C 154.733,2.79468 150.733,3.46134 146.5,3.5C 150.236,2.01086 154.236,1.3442 158.5,1.5 Z"/></g>
<g><path style="opacity:0.506" fill="#000001" d="M 134.5,6.5 C 128.784,9.07204 122.784,11.072 116.5,12.5C 122.085,9.52709 128.085,7.52709 134.5,6.5 Z"/></g>
<g><path style="opacity:0.471" fill="#000001" d="M 234.5,6.5 C 238.915,6.8606 242.915,8.19393 246.5,10.5C 242.216,9.73865 238.216,8.40532 234.5,6.5 Z"/></g>
<g><path style="opacity:0.523" fill="#000001" d="M 249.5,11.5 C 254.689,12.4316 259.356,14.4316 263.5,17.5C 258.544,16.0178 253.877,14.0178 249.5,11.5 Z"/></g>
<g><path style="opacity:0.543" fill="#000001" d="M 116.5,12.5 C 114.574,14.2927 112.241,15.2927 109.5,15.5C 111.426,13.7073 113.759,12.7073 116.5,12.5 Z"/></g>
<g><path style="opacity:0.476" fill="#000001" d="M 107.5,16.5 C 103.818,19.0078 99.8178,21.0078 95.5,22.5C 98.9136,19.4598 102.914,17.4598 107.5,16.5 Z"/></g>
<g><path style="opacity:0.457" fill="#000001" d="M 265.5,18.5 C 268.089,18.461 270.089,19.461 271.5,21.5C 269.181,21.0075 267.181,20.0075 265.5,18.5 Z"/></g>
<g><path style="opacity:0.5" fill="#000001" d="M 271.5,21.5 C 276.024,23.0435 280.024,25.3768 283.5,28.5C 278.976,26.9565 274.976,24.6232 271.5,21.5 Z"/></g>
<g><path style="opacity:0.534" fill="#000001" d="M 95.5,22.5 C 94.3406,24.2503 92.674,25.2503 90.5,25.5C 91.6594,23.7497 93.326,22.7497 95.5,22.5 Z"/></g>
<g><path style="opacity:0.527" fill="#000001" d="M 90.5,25.5 C 87.106,28.2205 83.4394,30.5538 79.5,32.5C 82.3577,28.9905 86.0243,26.6571 90.5,25.5 Z"/></g>
<g><path style="opacity:0.535" fill="#000001" d="M 283.5,28.5 C 285.027,28.427 286.027,29.0937 286.5,30.5C 284.973,30.573 283.973,29.9063 283.5,28.5 Z"/></g>
<g><path style="opacity:0.509" fill="#000001" d="M 286.5,30.5 C 290.732,32.4002 294.399,35.0669 297.5,38.5C 293.268,36.5998 289.601,33.9331 286.5,30.5 Z"/></g>
<g><path style="opacity:0.504" fill="#000001" d="M 79.5,32.5 C 76.3988,35.9331 72.7321,38.5998 68.5,40.5C 71.6012,37.0669 75.2679,34.4002 79.5,32.5 Z"/></g>
<g><path style="opacity:0.544" fill="#000001" d="M 297.5,38.5 C 299.749,39.0798 301.415,40.4131 302.5,42.5C 300.251,41.9202 298.585,40.5869 297.5,38.5 Z"/></g>
<g><path style="opacity:0.505" fill="#000001" d="M 68.5,40.5 C 65.7689,44.2343 62.4356,47.2343 58.5,49.5C 61.2311,45.7657 64.5644,42.7657 68.5,40.5 Z"/></g>
<g><path style="opacity:0.497" fill="#000001" d="M 303.5,43.5 C 307.1,45.4302 310.1,48.0969 312.5,51.5C 308.9,49.5698 305.9,46.9031 303.5,43.5 Z"/></g>
<g><path style="opacity:0.376" fill="#000000" d="M 58.5,49.5 C 56.1667,52.5 53.5,55.1667 50.5,57.5C 52.1667,53.8333 54.8333,51.1667 58.5,49.5 Z"/></g>
<g><path style="opacity:0.383" fill="#000000" d="M 313.5,52.5 C 314.833,52.5 315.5,53.1667 315.5,54.5C 314.5,54.1667 313.833,53.5 313.5,52.5 Z"/></g>
<g><path style="opacity:0.493" fill="#000001" d="M 316.5,55.5 C 320.234,58.2311 323.234,61.5644 325.5,65.5C 321.766,62.7689 318.766,59.4356 316.5,55.5 Z"/></g>
<g><path style="opacity:0.557" fill="#000001" d="M 197.5,57.5 C 184.437,57.1689 171.437,57.8356 158.5,59.5C 162.264,58.1682 166.264,57.3349 170.5,57C 179.676,56.176 188.676,56.3427 197.5,57.5 Z"/></g>
<g><path style="opacity:0.492" fill="#000001" d="M 49.5,58.5 C 47.5698,62.1002 44.9031,65.1002 41.5,67.5C 43.4302,63.8998 46.0969,60.8998 49.5,58.5 Z"/></g>
<g><path style="opacity:0.452" fill="#000001" d="M 204.5,58.5 C 208.122,58.322 211.456,58.9886 214.5,60.5C 210.922,60.4512 207.589,59.7846 204.5,58.5 Z"/></g>
<g><path style="opacity:0.483" fill="#000001" d="M 154.5,60.5 C 148.384,62.8704 142.051,64.8704 135.5,66.5C 141.374,63.3211 147.707,61.3211 154.5,60.5 Z"/></g>
<g><path style="opacity:0.533" fill="#000001" d="M 218.5,61.5 C 222.915,61.8606 226.915,63.1939 230.5,65.5C 226.216,64.7387 222.216,63.4053 218.5,61.5 Z"/></g>
<g><path style="opacity:0.464" fill="#000001" d="M 230.5,65.5 C 233.241,65.7073 235.574,66.7073 237.5,68.5C 234.759,68.2927 232.426,67.2927 230.5,65.5 Z"/></g>
<g><path style="opacity:0.519" fill="#000001" d="M 325.5,65.5 C 327.587,66.5846 328.92,68.2512 329.5,70.5C 327.413,69.4154 326.08,67.7488 325.5,65.5 Z"/></g>
<g><path style="opacity:0.507" fill="#000001" d="M 41.5,67.5 C 41.2624,69.4044 40.2624,70.7377 38.5,71.5C 38.7376,69.5956 39.7376,68.2623 41.5,67.5 Z"/></g>
<g><path style="opacity:0.514" fill="#000001" d="M 133.5,67.5 C 129.818,70.0078 125.818,72.0078 121.5,73.5C 124.914,70.4598 128.914,68.4598 133.5,67.5 Z"/></g>
<g><path style="opacity:0.567" fill="#000000" d="M 239.5,69.5 C 242.089,69.461 244.089,70.461 245.5,72.5C 243.181,72.0075 241.181,71.0075 239.5,69.5 Z"/></g>
<g><path style="opacity:0.464" fill="#000001" d="M 329.5,70.5 C 331.262,71.2623 332.262,72.5956 332.5,74.5C 330.738,73.7377 329.738,72.4044 329.5,70.5 Z"/></g>
<g><path style="opacity:0.469" fill="#000001" d="M 38.5,71.5 C 38.2624,73.4044 37.2624,74.7377 35.5,75.5C 35.7376,73.5956 36.7376,72.2623 38.5,71.5 Z"/></g>
<g><path style="opacity:0.506" fill="#000001" d="M 245.5,72.5 C 247.674,72.7497 249.341,73.7497 250.5,75.5C 248.326,75.2503 246.659,74.2503 245.5,72.5 Z"/></g>
<g><path style="opacity:0.48" fill="#000001" d="M 121.5,73.5 C 120.341,75.2503 118.674,76.2503 116.5,76.5C 117.659,74.7497 119.326,73.7497 121.5,73.5 Z"/></g>
<g><path style="opacity:0.484" fill="#000001" d="M 332.5,74.5 C 334.262,75.2623 335.262,76.5956 335.5,78.5C 333.738,77.7377 332.738,76.4044 332.5,74.5 Z"/></g>
<g><path style="opacity:0.499" fill="#000001" d="M 35.5,75.5 C 34.5667,78.3702 32.9,80.7036 30.5,82.5C 31.4333,79.6298 33.1,77.2964 35.5,75.5 Z"/></g>
<g><path style="opacity:0.481" fill="#000001" d="M 250.5,75.5 C 254.049,76.7232 257.049,78.7232 259.5,81.5C 255.975,80.2411 252.975,78.2411 250.5,75.5 Z"/></g>
<g><path style="opacity:0.48" fill="#000001" d="M 116.5,76.5 C 113.725,79.6046 110.392,81.9379 106.5,83.5C 109.275,80.3954 112.608,78.0621 116.5,76.5 Z"/></g>
<g><path style="opacity:0.542" fill="#000001" d="M 335.5,78.5 C 336.906,78.9731 337.573,79.9731 337.5,81.5C 336.094,81.0269 335.427,80.0269 335.5,78.5 Z"/></g>
<g><path style="opacity:0.508" fill="#000001" d="M 259.5,81.5 C 261.404,81.7376 262.738,82.7376 263.5,84.5C 261.596,84.2624 260.262,83.2624 259.5,81.5 Z"/></g>
<g><path style="opacity:0.487" fill="#000001" d="M 337.5,81.5 C 339.95,83.6291 341.617,86.2957 342.5,89.5C 340.05,87.3709 338.383,84.7043 337.5,81.5 Z"/></g>
<g><path style="opacity:0.515" fill="#000001" d="M 30.5,82.5 C 30.2503,84.674 29.2503,86.3406 27.5,87.5C 27.7497,85.326 28.7497,83.6594 30.5,82.5 Z"/></g>
<g><path style="opacity:0.46" fill="#000001" d="M 106.5,83.5 C 105.089,85.914 103.089,87.5806 100.5,88.5C 101.911,86.086 103.911,84.4194 106.5,83.5 Z"/></g>
<g><path style="opacity:0.462" fill="#000000" d="M 263.5,84.5 C 266.764,86.0941 269.431,88.4275 271.5,91.5C 268.236,89.9059 265.569,87.5725 263.5,84.5 Z"/></g>
<g><path style="opacity:0.479" fill="#000001" d="M 27.5,87.5 C 27.2503,89.674 26.2503,91.3406 24.5,92.5C 24.7497,90.326 25.7497,88.6594 27.5,87.5 Z"/></g>
<g><path style="opacity:0.591" fill="#000001" d="M 99.5,89.5 C 96.8333,92.8333 93.8333,95.8333 90.5,98.5C 92.5,94.5 95.5,91.5 99.5,89.5 Z"/></g>
<g><path style="opacity:0.489" fill="#000001" d="M 342.5,89.5 C 344.25,90.6594 345.25,92.326 345.5,94.5C 343.75,93.3406 342.75,91.674 342.5,89.5 Z"/></g>
<g><path style="opacity:0.491" fill="#000001" d="M 24.5,92.5 C 22.0078,98.8177 19.0078,104.818 15.5,110.5C 17.4596,103.914 20.4596,97.9142 24.5,92.5 Z"/></g>
<g><path style="opacity:0.616" fill="#000002" d="M 272.5,92.5 C 274.5,92.5 275.5,93.5 275.5,95.5C 274.167,94.8333 273.167,93.8333 272.5,92.5 Z"/></g>
<g><path style="opacity:0.464" fill="#000001" d="M 276.5,96.5 C 279.573,98.5691 281.906,101.236 283.5,104.5C 280.427,102.431 278.094,99.7642 276.5,96.5 Z"/></g>
<g><path style="opacity:0.422" fill="#000001" d="M 89.5,99.5 C 88.5806,102.089 86.914,104.089 84.5,105.5C 85.4194,102.911 87.086,100.911 89.5,99.5 Z"/></g>
<g><path style="opacity:0.514" fill="#000001" d="M 283.5,104.5 C 285.262,105.262 286.262,106.596 286.5,108.5C 284.738,107.738 283.738,106.404 283.5,104.5 Z"/></g>
<g><path style="opacity:0.478" fill="#000001" d="M 84.5,105.5 C 84.2624,107.404 83.2624,108.738 81.5,109.5C 81.7376,107.596 82.7376,106.262 84.5,105.5 Z"/></g>
<g><path style="opacity:0.487" fill="#000001" d="M 286.5,108.5 C 289.277,110.951 291.277,113.951 292.5,117.5C 289.759,115.025 287.759,112.025 286.5,108.5 Z"/></g>
<g><path style="opacity:0.492" fill="#000001" d="M 352.5,108.5 C 353.931,109.78 354.598,111.447 354.5,113.5C 353.069,112.22 352.402,110.553 352.5,108.5 Z"/></g>
<g><path style="opacity:0.52" fill="#000001" d="M 81.5,109.5 C 81.2624,111.404 80.2624,112.738 78.5,113.5C 78.7376,111.596 79.7376,110.262 81.5,109.5 Z"/></g>
<g><path style="opacity:0.554" fill="#000001" d="M 15.5,110.5 C 14.4039,115.132 12.7372,119.466 10.5,123.5C 11.2038,118.71 12.8705,114.377 15.5,110.5 Z"/></g>
<g><path style="opacity:0.489" fill="#000001" d="M 78.5,113.5 C 74.7513,121.332 70.7513,128.999 66.5,136.5C 69.2084,128.08 73.2084,120.414 78.5,113.5 Z"/></g>
<g><path style="opacity:0.492" fill="#000001" d="M 354.5,113.5 C 357.668,118.667 359.668,124.334 360.5,130.5C 358.125,125.047 356.125,119.381 354.5,113.5 Z"/></g>
<g><path style="opacity:0.507" fill="#000001" d="M 292.5,117.5 C 294.25,118.659 295.25,120.326 295.5,122.5C 293.75,121.341 292.75,119.674 292.5,117.5 Z"/></g>
<g><path style="opacity:0.569" fill="#000000" d="M 295.5,122.5 C 297.539,123.911 298.539,125.911 298.5,128.5C 296.992,126.819 295.992,124.819 295.5,122.5 Z"/></g>
<g><path style="opacity:0.497" fill="#000001" d="M 9.5,126.5 C 9.40505,128.786 8.73838,130.786 7.5,132.5C 7.25939,130.102 7.92606,128.102 9.5,126.5 Z"/></g>
<g><path style="opacity:0.445" fill="#000001" d="M 298.5,128.5 C 300.625,131.088 301.958,134.088 302.5,137.5C 300.375,134.912 299.042,131.912 298.5,128.5 Z"/></g>
<g><path style="opacity:0.491" fill="#000001" d="M 360.5,130.5 C 361.924,132.515 362.59,134.848 362.5,137.5C 361.076,135.485 360.41,133.152 360.5,130.5 Z"/></g>
<g><path style="opacity:0.539" fill="#000001" d="M 5.5,140.5 C 3.25151,153.229 1.58485,165.895 0.5,178.5C 0.130555,165.429 1.79722,152.763 5.5,140.5 Z"/></g>
<g><path style="opacity:0.524" fill="#000001" d="M 303.5,140.5 C 305.472,143.084 306.472,146.084 306.5,149.5C 304.928,146.785 303.928,143.785 303.5,140.5 Z"/></g>
<g><path style="opacity:0.5" fill="#000001" d="M 64.5,142.5 C 64.405,144.786 63.7384,146.786 62.5,148.5C 62.2594,146.102 62.9261,144.102 64.5,142.5 Z"/></g>
<g><path style="opacity:0.463" fill="#000001" d="M 306.5,149.5 C 308.419,153.857 309.419,158.523 309.5,163.5C 307.898,159.079 306.898,154.412 306.5,149.5 Z"/></g>
<g><path style="opacity:0.517" fill="#000001" d="M 366.5,157.5 C 367.991,165.95 368.658,174.617 368.5,183.5C 368.678,192.054 368.011,200.388 366.5,208.5C 367.813,191.501 367.813,174.501 366.5,157.5 Z"/></g>
<g><path style="opacity:0.564" fill="#000001" d="M 0.5,188.5 C 1.5284,199.724 2.86173,211.057 4.5,222.5C 1.40989,211.512 0.0765605,200.179 0.5,188.5 Z"/></g>
<g><path style="opacity:0.514" fill="#000001" d="M 59.5,205.5 C 61.655,213.775 63.9883,222.108 66.5,230.5C 62.474,222.741 60.1407,214.407 59.5,205.5 Z"/></g>
<g><path style="opacity:0.495" fill="#000001" d="M 366.5,208.5 C 366.052,218.278 364.052,227.612 360.5,236.5C 362.533,227.052 364.533,217.718 366.5,208.5 Z"/></g>
<g><path style="opacity:0.478" fill="#000001" d="M 306.5,217.5 C 305.668,223.666 303.668,229.333 300.5,234.5C 302.125,228.619 304.125,222.953 306.5,217.5 Z"/></g>
<g><path style="opacity:0.478" fill="#000001" d="M 6.5,230.5 C 8.53698,235.617 10.2036,240.95 11.5,246.5C 8.65413,241.624 6.98746,236.291 6.5,230.5 Z"/></g>
<g><path style="opacity:0.465" fill="#000001" d="M 66.5,230.5 C 68.6246,233.088 69.9579,236.088 70.5,239.5C 68.3754,236.912 67.0421,233.912 66.5,230.5 Z"/></g>
<g><path style="opacity:0.547" fill="#000001" d="M 300.5,234.5 C 299.54,239.086 297.54,243.086 294.5,246.5C 295.992,242.182 297.992,238.182 300.5,234.5 Z"/></g>
<g><path style="opacity:0.541" fill="#000001" d="M 358.5,242.5 C 357.935,246.537 356.601,250.203 354.5,253.5C 355.065,249.463 356.399,245.797 358.5,242.5 Z"/></g>
<g><path style="opacity:0.479" fill="#000001" d="M 72.5,243.5 C 74.2503,244.659 75.2503,246.326 75.5,248.5C 73.7497,247.341 72.7497,245.674 72.5,243.5 Z"/></g>
<g><path style="opacity:0.515" fill="#000001" d="M 294.5,246.5 C 294.25,248.674 293.25,250.341 291.5,251.5C 291.75,249.326 292.75,247.659 294.5,246.5 Z"/></g>
<g><path style="opacity:0.492" fill="#000001" d="M 75.5,248.5 C 78.5515,252.223 81.2181,256.223 83.5,260.5C 79.6644,257.322 76.9977,253.322 75.5,248.5 Z"/></g>
<g><path style="opacity:0.558" fill="#000001" d="M 12.5,249.5 C 13.9313,250.78 14.5979,252.447 14.5,254.5C 13.0687,253.22 12.4021,251.553 12.5,249.5 Z"/></g>
<g><path style="opacity:0.474" fill="#000001" d="M 291.5,251.5 C 288.31,258.026 283.976,263.692 278.5,268.5C 282.457,262.543 286.79,256.877 291.5,251.5 Z"/></g>
<g><path style="opacity:0.515" fill="#000001" d="M 14.5,254.5 C 17.2895,258.416 19.2895,262.749 20.5,267.5C 17.7105,263.584 15.7105,259.251 14.5,254.5 Z"/></g>
<g><path style="opacity:0.524" fill="#000001" d="M 353.5,255.5 C 352.958,258.912 351.625,261.912 349.5,264.5C 350.042,261.088 351.375,258.088 353.5,255.5 Z"/></g>
<g><path style="opacity:0.444" fill="#000001" d="M 83.5,260.5 C 85.5869,261.585 86.9202,263.251 87.5,265.5C 85.4131,264.415 84.0798,262.749 83.5,260.5 Z"/></g>
<g><path style="opacity:0.44" fill="#000001" d="M 349.5,264.5 C 349.771,266.38 349.104,267.713 347.5,268.5C 347.66,266.847 348.326,265.514 349.5,264.5 Z"/></g>
<g><path style="opacity:0.535" fill="#000001" d="M 87.5,265.5 C 92.5,269.833 97.1667,274.5 101.5,279.5C 95.8333,275.833 91.1667,271.167 87.5,265.5 Z"/></g>
<g><path style="opacity:0.498" fill="#000001" d="M 347.5,268.5 C 346.921,271.331 345.588,273.664 343.5,275.5C 344.079,272.669 345.412,270.336 347.5,268.5 Z"/></g>
<g><path style="opacity:0.501" fill="#000001" d="M 21.5,269.5 C 24.6232,272.976 26.9565,276.976 28.5,281.5C 25.3768,278.024 23.0435,274.024 21.5,269.5 Z"/></g>
<g><path style="opacity:0.608" fill="#000001" d="M 277.5,269.5 C 275.833,273.167 273.167,275.833 269.5,277.5C 271.833,274.5 274.5,271.833 277.5,269.5 Z"/></g>
<g><path style="opacity:0.517" fill="#000001" d="M 343.5,275.5 C 341.494,280.855 338.494,285.521 334.5,289.5C 337.004,284.485 340.004,279.819 343.5,275.5 Z"/></g>
<g><path style="opacity:0.425" fill="#000000" d="M 269.5,277.5 C 267.761,280.243 265.427,282.243 262.5,283.5C 264.239,280.757 266.573,278.757 269.5,277.5 Z"/></g>
<g><path style="opacity:0.46" fill="#000001" d="M 102.5,280.5 C 104.749,281.08 106.415,282.413 107.5,284.5C 105.251,283.92 103.585,282.587 102.5,280.5 Z"/></g>
<g><path style="opacity:0.522" fill="#000001" d="M 28.5,281.5 C 30.3264,283.147 31.6597,285.147 32.5,287.5C 30.1782,286.198 28.8449,284.198 28.5,281.5 Z"/></g>
<g><path style="opacity:0.515" fill="#000001" d="M 262.5,283.5 C 261.738,285.262 260.404,286.262 258.5,286.5C 259.262,284.738 260.596,283.738 262.5,283.5 Z"/></g>
<g><path style="opacity:0.501" fill="#000001" d="M 107.5,284.5 C 111.777,286.782 115.777,289.449 119.5,292.5C 114.678,291.002 110.678,288.336 107.5,284.5 Z"/></g>
<g><path style="opacity:0.494" fill="#000001" d="M 258.5,286.5 C 255.642,290.01 251.976,292.343 247.5,293.5C 250.894,290.779 254.561,288.446 258.5,286.5 Z"/></g>
<g><path style="opacity:0.503" fill="#000001" d="M 32.5,287.5 C 35.9331,290.601 38.5998,294.268 40.5,298.5C 37.0669,295.399 34.4002,291.732 32.5,287.5 Z"/></g>
<g><path style="opacity:0.509" fill="#000001" d="M 334.5,289.5 C 334.573,291.027 333.906,292.027 332.5,292.5C 332.427,290.973 333.094,289.973 334.5,289.5 Z"/></g>
<g><path style="opacity:0.489" fill="#000001" d="M 119.5,292.5 C 121.674,292.75 123.341,293.75 124.5,295.5C 122.326,295.25 120.659,294.25 119.5,292.5 Z"/></g>
<g><path style="opacity:0.474" fill="#000000" d="M 332.5,292.5 C 332.5,293.833 332.5,295.167 332.5,296.5C 329.833,295.167 329.833,293.833 332.5,292.5 Z"/></g>
<g><path style="opacity:0.484" fill="#000001" d="M 247.5,293.5 C 243.419,296.874 238.753,299.207 233.5,300.5C 237.849,297.659 242.516,295.326 247.5,293.5 Z"/></g>
<g><path style="opacity:0.517" fill="#000001" d="M 332.5,296.5 C 335.089,297.419 337.089,299.086 338.5,301.5C 335.911,300.581 333.911,298.914 332.5,296.5 Z"/></g>
<g><path style="opacity:0.478" fill="#000001" d="M 128.5,297.5 C 131.912,298.042 134.912,299.375 137.5,301.5C 134.088,300.958 131.088,299.625 128.5,297.5 Z"/></g>
<g><path style="opacity:0.528" fill="#000001" d="M 40.5,298.5 C 43.5725,300.569 45.9059,303.236 47.5,306.5C 44.4275,304.431 42.0941,301.764 40.5,298.5 Z"/></g>
<g><path style="opacity:0.45" fill="#000001" d="M 233.5,300.5 C 232.22,301.931 230.553,302.598 228.5,302.5C 229.78,301.069 231.447,300.402 233.5,300.5 Z"/></g>
<g><path style="opacity:0.535" fill="#000001" d="M 137.5,301.5 C 144.321,303.332 150.988,305.332 157.5,307.5C 150.323,306.883 143.656,304.883 137.5,301.5 Z"/></g>
<g><path style="opacity:0.446" fill="#000001" d="M 338.5,301.5 C 340.027,301.427 341.027,302.094 341.5,303.5C 339.973,303.573 338.973,302.906 338.5,301.5 Z"/></g>
<g><path style="opacity:0.495" fill="#000001" d="M 367.5,303.5 C 364.098,303.342 360.764,303.676 357.5,304.5C 357.611,303.883 357.944,303.383 358.5,303C 361.696,302.195 364.696,302.362 367.5,303.5 Z"/></g>
<g><path style="opacity:0.484" fill="#000001" d="M 341.5,303.5 C 344.397,304.129 347.064,305.129 349.5,306.5C 346.284,306.655 343.617,305.655 341.5,303.5 Z"/></g>
<g><path style="opacity:0.555" fill="#000001" d="M 367.5,303.5 C 370.754,303.794 373.421,305.127 375.5,307.5C 372.515,306.674 369.849,305.341 367.5,303.5 Z"/></g>
<g><path style="opacity:0.585" fill="#000001" d="M 357.5,304.5 C 355.2,307.052 352.533,307.718 349.5,306.5C 352.221,306.037 354.888,305.371 357.5,304.5 Z"/></g>
<g><path style="opacity:0.43" fill="#000001" d="M 215.5,306.5 C 210.444,308.347 205.111,309.514 199.5,310C 189.325,310.825 179.325,310.658 169.5,309.5C 184.958,310.106 200.292,309.106 215.5,306.5 Z"/></g>
<g><path style="opacity:0.437" fill="#000000" d="M 48.5,307.5 C 53.1667,311.5 57.5,315.833 61.5,320.5C 56.1667,317.167 51.8333,312.833 48.5,307.5 Z"/></g>
<g><path style="opacity:0.463" fill="#000001" d="M 375.5,307.5 C 378.089,308.419 380.089,310.086 381.5,312.5C 378.911,311.581 376.911,309.914 375.5,307.5 Z"/></g>
<g><path style="opacity:0.498" fill="#000001" d="M 383.5,314.5 C 392.555,322.554 400.889,331.221 408.5,340.5C 399.445,332.446 391.111,323.779 383.5,314.5 Z"/></g>
<g><path style="opacity:0.538" fill="#000001" d="M 61.5,320.5 C 68.842,326.169 76.1753,331.836 83.5,337.5C 75.0746,333.283 67.7413,327.616 61.5,320.5 Z"/></g>
<g><path style="opacity:0.52" fill="#000001" d="M 302.5,331.5 C 301.206,330.71 300.039,329.71 299,328.5C 298.329,329.252 297.496,329.586 296.5,329.5C 297.122,328.373 297.955,327.373 299,326.5C 300.802,327.789 301.969,329.456 302.5,331.5 Z"/></g>
<g><path style="opacity:0.487" fill="#000001" d="M 296.5,329.5 C 294.704,331.9 292.37,333.567 289.5,334.5C 291.296,332.1 293.63,330.433 296.5,329.5 Z"/></g>
<g><path style="opacity:0.456" fill="#000001" d="M 302.5,331.5 C 308.54,336.788 310.706,343.454 309,351.5C 305.403,355.655 304.569,360.322 306.5,365.5C 305.163,363.651 304.497,361.484 304.5,359C 306.071,354.922 307.404,350.755 308.5,346.5C 307.858,340.893 305.858,335.893 302.5,331.5 Z"/></g>
<g><path style="opacity:0.483" fill="#000001" d="M 289.5,334.5 C 288.738,336.262 287.404,337.262 285.5,337.5C 286.262,335.738 287.596,334.738 289.5,334.5 Z"/></g>
<g><path style="opacity:0.508" fill="#000001" d="M 83.5,337.5 C 86.7043,338.383 89.3709,340.05 91.5,342.5C 88.2957,341.617 85.6291,339.95 83.5,337.5 Z"/></g>
<g><path style="opacity:0.502" fill="#000001" d="M 285.5,337.5 C 282.024,340.623 278.024,342.957 273.5,344.5C 276.976,341.377 280.976,339.043 285.5,337.5 Z"/></g>
<g><path style="opacity:0.555" fill="#000001" d="M 91.5,342.5 C 99.151,345.659 106.484,349.325 113.5,353.5C 105.581,350.874 98.2476,347.207 91.5,342.5 Z"/></g>
<g><path style="opacity:0.467" fill="#000001" d="M 273.5,344.5 C 269.419,347.874 264.753,350.207 259.5,351.5C 263.849,348.659 268.516,346.326 273.5,344.5 Z"/></g>
<g><path style="opacity:0.501" fill="#000001" d="M 413.5,345.5 C 422.555,353.554 430.889,362.221 438.5,371.5C 429.445,363.446 421.111,354.779 413.5,345.5 Z"/></g>
<g><path style="opacity:0.541" fill="#000001" d="M 257.5,352.5 C 256.22,353.931 254.553,354.598 252.5,354.5C 253.78,353.069 255.447,352.402 257.5,352.5 Z"/></g>
<g><path style="opacity:0.503" fill="#000001" d="M 113.5,353.5 C 116.542,353.733 119.208,354.733 121.5,356.5C 118.458,356.267 115.792,355.267 113.5,353.5 Z"/></g>
<g><path style="opacity:0.485" fill="#000001" d="M 252.5,354.5 C 250.208,356.267 247.542,357.267 244.5,357.5C 246.792,355.733 249.458,354.733 252.5,354.5 Z"/></g>
<g><path style="opacity:0.513" fill="#000001" d="M 121.5,356.5 C 127.05,357.796 132.383,359.463 137.5,361.5C 131.7,361.009 126.367,359.343 121.5,356.5 Z"/></g>
<g><path style="opacity:0.466" fill="#000000" d="M 244.5,357.5 C 242.898,359.074 240.898,359.741 238.5,359.5C 240.214,358.262 242.214,357.595 244.5,357.5 Z"/></g>
<g><path style="opacity:0.494" fill="#000001" d="M 238.5,359.5 C 235.146,361.258 231.479,362.258 227.5,362.5C 230.854,360.742 234.521,359.742 238.5,359.5 Z"/></g>
<g><path style="opacity:0.538" fill="#000001" d="M 137.5,361.5 C 140.428,361.565 143.095,362.232 145.5,363.5C 142.505,363.706 139.838,363.04 137.5,361.5 Z"/></g>
<g><path style="opacity:0.508" fill="#000001" d="M 145.5,363.5 C 149.425,363.43 153.091,364.097 156.5,365.5C 152.575,365.57 148.909,364.903 145.5,363.5 Z"/></g>
<g><path style="opacity:0.381" fill="#000001" d="M 217.5,364.5 C 207.433,366.762 197.099,368.096 186.5,368.5C 184.304,368.495 182.304,368.162 180.5,367.5C 192.877,366.996 205.21,365.996 217.5,364.5 Z"/></g>
<g><path style="opacity:0.505" fill="#000001" d="M 306.5,365.5 C 308.008,367.181 309.008,369.181 309.5,371.5C 307.461,370.089 306.461,368.089 306.5,365.5 Z"/></g>
<g><path style="opacity:0.554" fill="#000001" d="M 309.5,371.5 C 311.262,372.262 312.262,373.596 312.5,375.5C 310.738,374.738 309.738,373.404 309.5,371.5 Z"/></g>
<g><path style="opacity:0.536" fill="#000001" d="M 312.5,375.5 C 319.891,381.889 326.557,388.889 332.5,396.5C 325.109,390.111 318.443,383.111 312.5,375.5 Z"/></g>
<g><path style="opacity:0.496" fill="#000001" d="M 443.5,376.5 C 452.889,384.887 461.555,393.887 469.5,403.5C 460.111,395.113 451.445,386.113 443.5,376.5 Z"/></g>
<g><path style="opacity:0.499" fill="#000001" d="M 336.5,400.5 C 345.889,408.887 354.555,417.887 362.5,427.5C 353.111,419.113 344.445,410.113 336.5,400.5 Z"/></g>
<g><path style="opacity:0.499" fill="#000001" d="M 473.5,407.5 C 482.889,415.887 491.555,424.887 499.5,434.5C 490.111,426.113 481.445,417.113 473.5,407.5 Z"/></g>
<g><path style="opacity:0.5" fill="#000001" d="M 366.5,431.5 C 375.555,439.554 383.889,448.221 391.5,457.5C 382.445,449.446 374.111,440.779 366.5,431.5 Z"/></g>
<g><path style="opacity:0.576" fill="#000001" d="M 503.5,438.5 C 507.945,442.056 510.278,446.723 510.5,452.5C 508.719,447.604 506.385,442.937 503.5,438.5 Z"/></g>
<g><path style="opacity:0.365" fill="#000000" d="M 510.5,452.5 C 510.833,452.5 511.167,452.5 511.5,452.5C 511.5,454.5 511.5,456.5 511.5,458.5C 510.833,459.833 510.167,461.167 509.5,462.5C 509.833,459.167 510.167,455.833 510.5,452.5 Z"/></g>
<g><path style="opacity:0.5" fill="#000001" d="M 395.5,461.5 C 404.889,469.887 413.555,478.887 421.5,488.5C 412.111,480.113 403.445,471.113 395.5,461.5 Z"/></g>
<g><path style="opacity:0.542" fill="#000001" d="M 509.5,462.5 C 509.539,465.089 508.539,467.089 506.5,468.5C 506.992,466.181 507.992,464.181 509.5,462.5 Z"/></g>
<g><path style="opacity:0.437" fill="#000000" d="M 506.5,468.5 C 501.167,475.833 494.833,482.167 487.5,487.5C 493.5,480.833 499.833,474.5 506.5,468.5 Z"/></g>
<g><path style="opacity:0.582" fill="#000001" d="M 483.5,491.5 C 478.776,497.227 473.442,502.227 467.5,506.5C 472.224,500.773 477.558,495.773 483.5,491.5 Z"/></g>
<g><path style="opacity:0.392" fill="#000000" d="M 425.5,492.5 C 430.833,497.167 435.833,502.167 440.5,507.5C 434.5,503.5 429.5,498.5 425.5,492.5 Z"/></g>
<g><path style="opacity:0.529" fill="#000001" d="M 467.5,506.5 C 465.66,508.914 463.327,510.581 460.5,511.5C 455.833,511.5 451.167,511.5 446.5,511.5C 444.19,510.675 442.19,509.342 440.5,507.5C 449.725,511.757 458.725,511.424 467.5,506.5 Z"/></g>
</svg>
